<?xml version="1.0" encoding="UTF-8"?>
<svg width="12px" height="16px" viewBox="0 0 12 16" version="1.1" xmlns="http://www.w3.org/2000/svg" xmlns:xlink="http://www.w3.org/1999/xlink">
    <!-- Generator: Sketch 50.2 (55047) - http://www.bohemiancoding.com/sketch -->
    <title>company icon 16x16</title>
    <desc>Created with Sketch.</desc>
    <defs></defs>
    <g id="Buttons-(styling,-consistency)" stroke="none" stroke-width="1" fill="none" fill-rule="evenodd">
        <g id="company-icon-16x16" transform="translate(-2.000000, 0.000000)">
            <rect id="Rectangle-11" fill="#F8F8F8" opacity="0" x="0" y="0" width="16" height="16"></rect>
            <path d="M13.4545455,0 C13.6022735,0 13.7301131,0.0565470536 13.8380682,0.169642857 C13.9460233,0.282738661 14,0.416665893 14,0.571428571 L14,15.4285714 C14,15.5833341 13.9460233,15.7172613 13.8380682,15.8303571 C13.7301131,15.9434529 13.6022735,16 13.4545455,16 L2.54545455,16 C2.39772653,16 2.2698869,15.9434529 2.16193182,15.8303571 C2.05397673,15.7172613 2,15.5833341 2,15.4285714 L2,0.571428571 C2,0.416665893 2.05397673,0.282738661 2.16193182,0.169642857 C2.2698869,0.0565470536 2.39772653,0 2.54545455,0 L13.4545455,0 Z M6.36363636,2.57142857 L6.36363636,3.14285714 C6.36363636,3.22619089 6.38920429,3.29464259 6.44034091,3.34821429 C6.49147753,3.40178598 6.55681778,3.42857143 6.63636364,3.42857143 L7.18181818,3.42857143 C7.26136403,3.42857143 7.32670429,3.40178598 7.37784091,3.34821429 C7.42897753,3.29464259 7.45454545,3.22619089 7.45454545,3.14285714 L7.45454545,2.57142857 C7.45454545,2.48809482 7.42897753,2.41964313 7.37784091,2.36607143 C7.32670429,2.31249973 7.26136403,2.28571429 7.18181818,2.28571429 L6.63636364,2.28571429 C6.55681778,2.28571429 6.49147753,2.31249973 6.44034091,2.36607143 C6.38920429,2.41964313 6.36363636,2.48809482 6.36363636,2.57142857 Z M6.36363636,4.85714286 L6.36363636,5.42857143 C6.36363636,5.51190518 6.38920429,5.58035687 6.44034091,5.63392857 C6.49147753,5.68750027 6.55681778,5.71428571 6.63636364,5.71428571 L7.18181818,5.71428571 C7.26136403,5.71428571 7.32670429,5.68750027 7.37784091,5.63392857 C7.42897753,5.58035687 7.45454545,5.51190518 7.45454545,5.42857143 L7.45454545,4.85714286 C7.45454545,4.77380911 7.42897753,4.70535741 7.37784091,4.65178571 C7.32670429,4.59821402 7.26136403,4.57142857 7.18181818,4.57142857 L6.63636364,4.57142857 C6.55681778,4.57142857 6.49147753,4.59821402 6.44034091,4.65178571 C6.38920429,4.70535741 6.36363636,4.77380911 6.36363636,4.85714286 Z M6.36363636,7.14285714 L6.36363636,7.71428571 C6.36363636,7.79761946 6.38920429,7.86607116 6.44034091,7.91964286 C6.49147753,7.97321455 6.55681778,8 6.63636364,8 L7.18181818,8 C7.26136403,8 7.32670429,7.97321455 7.37784091,7.91964286 C7.42897753,7.86607116 7.45454545,7.79761946 7.45454545,7.71428571 L7.45454545,7.14285714 C7.45454545,7.05952339 7.42897753,6.9910717 7.37784091,6.9375 C7.32670429,6.8839283 7.26136403,6.85714286 7.18181818,6.85714286 L6.63636364,6.85714286 C6.55681778,6.85714286 6.49147753,6.8839283 6.44034091,6.9375 C6.38920429,6.9910717 6.36363636,7.05952339 6.36363636,7.14285714 Z M6.36363636,9.42857143 L6.36363636,10 C6.36363636,10.0833338 6.38920429,10.1517854 6.44034091,10.2053571 C6.49147753,10.2589288 6.55681778,10.2857143 6.63636364,10.2857143 L7.18181818,10.2857143 C7.26136403,10.2857143 7.32670429,10.2589288 7.37784091,10.2053571 C7.42897753,10.1517854 7.45454545,10.0833338 7.45454545,10 L7.45454545,9.42857143 C7.45454545,9.34523768 7.42897753,9.27678598 7.37784091,9.22321429 C7.32670429,9.16964259 7.26136403,9.14285714 7.18181818,9.14285714 L6.63636364,9.14285714 C6.55681778,9.14285714 6.49147753,9.16964259 6.44034091,9.22321429 C6.38920429,9.27678598 6.36363636,9.34523768 6.36363636,9.42857143 Z M5.27272727,12.2857143 L5.27272727,11.7142857 C5.27272727,11.630952 5.24715935,11.5625003 5.19602273,11.5089286 C5.14488611,11.4553569 5.07954585,11.4285714 5,11.4285714 L4.45454545,11.4285714 C4.3749996,11.4285714 4.30965935,11.4553569 4.25852273,11.5089286 C4.20738611,11.5625003 4.18181818,11.630952 4.18181818,11.7142857 L4.18181818,12.2857143 C4.18181818,12.369048 4.20738611,12.4374997 4.25852273,12.4910714 C4.30965935,12.5446431 4.3749996,12.5714286 4.45454545,12.5714286 L5,12.5714286 C5.07954585,12.5714286 5.14488611,12.5446431 5.19602273,12.4910714 C5.24715935,12.4374997 5.27272727,12.369048 5.27272727,12.2857143 Z M5.27272727,10 L5.27272727,9.42857143 C5.27272727,9.34523768 5.24715935,9.27678598 5.19602273,9.22321429 C5.14488611,9.16964259 5.07954585,9.14285714 5,9.14285714 L4.45454545,9.14285714 C4.3749996,9.14285714 4.30965935,9.16964259 4.25852273,9.22321429 C4.20738611,9.27678598 4.18181818,9.34523768 4.18181818,9.42857143 L4.18181818,10 C4.18181818,10.0833338 4.20738611,10.1517854 4.25852273,10.2053571 C4.30965935,10.2589288 4.3749996,10.2857143 4.45454545,10.2857143 L5,10.2857143 C5.07954585,10.2857143 5.14488611,10.2589288 5.19602273,10.2053571 C5.24715935,10.1517854 5.27272727,10.0833338 5.27272727,10 Z M5.27272727,7.71428571 L5.27272727,7.14285714 C5.27272727,7.05952339 5.24715935,6.9910717 5.19602273,6.9375 C5.14488611,6.8839283 5.07954585,6.85714286 5,6.85714286 L4.45454545,6.85714286 C4.3749996,6.85714286 4.30965935,6.8839283 4.25852273,6.9375 C4.20738611,6.9910717 4.18181818,7.05952339 4.18181818,7.14285714 L4.18181818,7.71428571 C4.18181818,7.79761946 4.20738611,7.86607116 4.25852273,7.91964286 C4.30965935,7.97321455 4.3749996,8 4.45454545,8 L5,8 C5.07954585,8 5.14488611,7.97321455 5.19602273,7.91964286 C5.24715935,7.86607116 5.27272727,7.79761946 5.27272727,7.71428571 Z M5.27272727,5.42857143 L5.27272727,4.85714286 C5.27272727,4.77380911 5.24715935,4.70535741 5.19602273,4.65178571 C5.14488611,4.59821402 5.07954585,4.57142857 5,4.57142857 L4.45454545,4.57142857 C4.3749996,4.57142857 4.30965935,4.59821402 4.25852273,4.65178571 C4.20738611,4.70535741 4.18181818,4.77380911 4.18181818,4.85714286 L4.18181818,5.42857143 C4.18181818,5.51190518 4.20738611,5.58035687 4.25852273,5.63392857 C4.30965935,5.68750027 4.3749996,5.71428571 4.45454545,5.71428571 L5,5.71428571 C5.07954585,5.71428571 5.14488611,5.68750027 5.19602273,5.63392857 C5.24715935,5.58035687 5.27272727,5.51190518 5.27272727,5.42857143 Z M5.27272727,3.14285714 L5.27272727,2.57142857 C5.27272727,2.48809482 5.24715935,2.41964313 5.19602273,2.36607143 C5.14488611,2.31249973 5.07954585,2.28571429 5,2.28571429 L4.45454545,2.28571429 C4.3749996,2.28571429 4.30965935,2.31249973 4.25852273,2.36607143 C4.20738611,2.41964313 4.18181818,2.48809482 4.18181818,2.57142857 L4.18181818,3.14285714 C4.18181818,3.22619089 4.20738611,3.29464259 4.25852273,3.34821429 C4.30965935,3.40178598 4.3749996,3.42857143 4.45454545,3.42857143 L5,3.42857143 C5.07954585,3.42857143 5.14488611,3.40178598 5.19602273,3.34821429 C5.24715935,3.29464259 5.27272727,3.22619089 5.27272727,3.14285714 Z M9.63636364,14.5714286 L9.63636364,12.8571429 C9.63636364,12.7738091 9.61079571,12.7053574 9.55965909,12.6517857 C9.50852247,12.598214 9.44318222,12.5714286 9.36363636,12.5714286 L6.63636364,12.5714286 C6.55681778,12.5714286 6.49147753,12.598214 6.44034091,12.6517857 C6.38920429,12.7053574 6.36363636,12.7738091 6.36363636,12.8571429 L6.36363636,14.5714286 C6.36363636,14.6547623 6.38920429,14.723214 6.44034091,14.7767857 C6.49147753,14.8303574 6.55681778,14.8571429 6.63636364,14.8571429 L9.36363636,14.8571429 C9.44318222,14.8571429 9.50852247,14.8303574 9.55965909,14.7767857 C9.61079571,14.723214 9.63636364,14.6547623 9.63636364,14.5714286 Z M9.63636364,10 L9.63636364,9.42857143 C9.63636364,9.34523768 9.61079571,9.27678598 9.55965909,9.22321429 C9.50852247,9.16964259 9.44318222,9.14285714 9.36363636,9.14285714 L8.81818182,9.14285714 C8.73863597,9.14285714 8.67329571,9.16964259 8.62215909,9.22321429 C8.57102247,9.27678598 8.54545455,9.34523768 8.54545455,9.42857143 L8.54545455,10 C8.54545455,10.0833338 8.57102247,10.1517854 8.62215909,10.2053571 C8.67329571,10.2589288 8.73863597,10.2857143 8.81818182,10.2857143 L9.36363636,10.2857143 C9.44318222,10.2857143 9.50852247,10.2589288 9.55965909,10.2053571 C9.61079571,10.1517854 9.63636364,10.0833338 9.63636364,10 Z M9.63636364,7.71428571 L9.63636364,7.14285714 C9.63636364,7.05952339 9.61079571,6.9910717 9.55965909,6.9375 C9.50852247,6.8839283 9.44318222,6.85714286 9.36363636,6.85714286 L8.81818182,6.85714286 C8.73863597,6.85714286 8.67329571,6.8839283 8.62215909,6.9375 C8.57102247,6.9910717 8.54545455,7.05952339 8.54545455,7.14285714 L8.54545455,7.71428571 C8.54545455,7.79761946 8.57102247,7.86607116 8.62215909,7.91964286 C8.67329571,7.97321455 8.73863597,8 8.81818182,8 L9.36363636,8 C9.44318222,8 9.50852247,7.97321455 9.55965909,7.91964286 C9.61079571,7.86607116 9.63636364,7.79761946 9.63636364,7.71428571 Z M9.63636364,5.42857143 L9.63636364,4.85714286 C9.63636364,4.77380911 9.61079571,4.70535741 9.55965909,4.65178571 C9.50852247,4.59821402 9.44318222,4.57142857 9.36363636,4.57142857 L8.81818182,4.57142857 C8.73863597,4.57142857 8.67329571,4.59821402 8.62215909,4.65178571 C8.57102247,4.70535741 8.54545455,4.77380911 8.54545455,4.85714286 L8.54545455,5.42857143 C8.54545455,5.51190518 8.57102247,5.58035687 8.62215909,5.63392857 C8.67329571,5.68750027 8.73863597,5.71428571 8.81818182,5.71428571 L9.36363636,5.71428571 C9.44318222,5.71428571 9.50852247,5.68750027 9.55965909,5.63392857 C9.61079571,5.58035687 9.63636364,5.51190518 9.63636364,5.42857143 Z M9.63636364,3.14285714 L9.63636364,2.57142857 C9.63636364,2.48809482 9.61079571,2.41964313 9.55965909,2.36607143 C9.50852247,2.31249973 9.44318222,2.28571429 9.36363636,2.28571429 L8.81818182,2.28571429 C8.73863597,2.28571429 8.67329571,2.31249973 8.62215909,2.36607143 C8.57102247,2.41964313 8.54545455,2.48809482 8.54545455,2.57142857 L8.54545455,3.14285714 C8.54545455,3.22619089 8.57102247,3.29464259 8.62215909,3.34821429 C8.67329571,3.40178598 8.73863597,3.42857143 8.81818182,3.42857143 L9.36363636,3.42857143 C9.44318222,3.42857143 9.50852247,3.40178598 9.55965909,3.34821429 C9.61079571,3.29464259 9.63636364,3.22619089 9.63636364,3.14285714 Z M11.8181818,12.2857143 L11.8181818,11.7142857 C11.8181818,11.630952 11.7926139,11.5625003 11.7414773,11.5089286 C11.6903407,11.4553569 11.6250004,11.4285714 11.5454545,11.4285714 L11,11.4285714 C10.9204541,11.4285714 10.8551139,11.4553569 10.8039773,11.5089286 C10.7528407,11.5625003 10.7272727,11.630952 10.7272727,11.7142857 L10.7272727,12.2857143 C10.7272727,12.369048 10.7528407,12.4374997 10.8039773,12.4910714 C10.8551139,12.5446431 10.9204541,12.5714286 11,12.5714286 L11.5454545,12.5714286 C11.6250004,12.5714286 11.6903407,12.5446431 11.7414773,12.4910714 C11.7926139,12.4374997 11.8181818,12.369048 11.8181818,12.2857143 Z M11.8181818,10 L11.8181818,9.42857143 C11.8181818,9.34523768 11.7926139,9.27678598 11.7414773,9.22321429 C11.6903407,9.16964259 11.6250004,9.14285714 11.5454545,9.14285714 L11,9.14285714 C10.9204541,9.14285714 10.8551139,9.16964259 10.8039773,9.22321429 C10.7528407,9.27678598 10.7272727,9.34523768 10.7272727,9.42857143 L10.7272727,10 C10.7272727,10.0833338 10.7528407,10.1517854 10.8039773,10.2053571 C10.8551139,10.2589288 10.9204541,10.2857143 11,10.2857143 L11.5454545,10.2857143 C11.6250004,10.2857143 11.6903407,10.2589288 11.7414773,10.2053571 C11.7926139,10.1517854 11.8181818,10.0833338 11.8181818,10 Z M11.8181818,7.71428571 L11.8181818,7.14285714 C11.8181818,7.05952339 11.7926139,6.9910717 11.7414773,6.9375 C11.6903407,6.8839283 11.6250004,6.85714286 11.5454545,6.85714286 L11,6.85714286 C10.9204541,6.85714286 10.8551139,6.8839283 10.8039773,6.9375 C10.7528407,6.9910717 10.7272727,7.05952339 10.7272727,7.14285714 L10.7272727,7.71428571 C10.7272727,7.79761946 10.7528407,7.86607116 10.8039773,7.91964286 C10.8551139,7.97321455 10.9204541,8 11,8 L11.5454545,8 C11.6250004,8 11.6903407,7.97321455 11.7414773,7.91964286 C11.7926139,7.86607116 11.8181818,7.79761946 11.8181818,7.71428571 Z M11.8181818,5.42857143 L11.8181818,4.85714286 C11.8181818,4.77380911 11.7926139,4.70535741 11.7414773,4.65178571 C11.6903407,4.59821402 11.6250004,4.57142857 11.5454545,4.57142857 L11,4.57142857 C10.9204541,4.57142857 10.8551139,4.59821402 10.8039773,4.65178571 C10.7528407,4.70535741 10.7272727,4.77380911 10.7272727,4.85714286 L10.7272727,5.42857143 C10.7272727,5.51190518 10.7528407,5.58035687 10.8039773,5.63392857 C10.8551139,5.68750027 10.9204541,5.71428571 11,5.71428571 L11.5454545,5.71428571 C11.6250004,5.71428571 11.6903407,5.68750027 11.7414773,5.63392857 C11.7926139,5.58035687 11.8181818,5.51190518 11.8181818,5.42857143 Z M11.8181818,3.14285714 L11.8181818,2.57142857 C11.8181818,2.48809482 11.7926139,2.41964313 11.7414773,2.36607143 C11.6903407,2.31249973 11.6250004,2.28571429 11.5454545,2.28571429 L11,2.28571429 C10.9204541,2.28571429 10.8551139,2.31249973 10.8039773,2.36607143 C10.7528407,2.41964313 10.7272727,2.48809482 10.7272727,2.57142857 L10.7272727,3.14285714 C10.7272727,3.22619089 10.7528407,3.29464259 10.8039773,3.34821429 C10.8551139,3.40178598 10.9204541,3.42857143 11,3.42857143 L11.5454545,3.42857143 C11.6250004,3.42857143 11.6903407,3.40178598 11.7414773,3.34821429 C11.7926139,3.29464259 11.8181818,3.22619089 11.8181818,3.14285714 Z" id="" fill="#666666"></path>
        </g>
    </g>
</svg>